<?xml version="1.0" encoding="utf-8"?>
<!-- Generator: Adobe Illustrator 19.0.0, SVG Export Plug-In . SVG Version: 6.00 Build 0)  -->
<svg version="1.1" xmlns="http://www.w3.org/2000/svg" xmlns:xlink="http://www.w3.org/1999/xlink" x="0px" y="0px"
	 viewBox="0 0 560.2 408.5" style="enable-background:new 0 0 560.2 408.5;" xml:space="preserve">
<style type="text/css">
	.st0{stroke:#000000;stroke-width:0.5;stroke-miterlimit:10;}
</style>
<g id="f">
	<path class="st0" d="M105.3,50.7c0,0,25.6-13.3,84.9-18.2c29.4-2.4,68.1-3.5,99.1,1.8c36.1,6.2,62.7,16.4,62.7,16.4
		S305.8,39,273.3,37.7c-22.6-0.9-32.5,1.9-43.7,4c-28,5.2-37.3,16.6-37.3,16.6s-3.5-9.1-10.4-7c-6.9,2.1-6.6,10-6.6,10l-0.1,46.1
		c0,0-0.2,2.3,2.3,4.5c2.3,2,5.5,1.5,5.5,1.5l13.4,0.1c0,0,2.4,0.2,6.8-4.1c3.7-3.6,3.6-8.4,3.6-8.4s1.9,6.1-0.9,23.8
		c-0.9,5.8-7.1,21-7.1,21s2.5-13.6,0.1-17.2c-1.3-1.9-4.2-4.4-9.4-3.8c-1.5,0.2-7.8,0.4-11,2.4c-2.6,1.6-2.3,5.1-2.3,5.1L178,338
		c0,0,0.2,5.6,0.7,7c0.5,1.3,4.2,3,4.2,3s-13.5,18.8-14.8,23c-2.7,8.3-3.3,27-3.3,27l-3.6-341.8c0,0,0.2-9.5-19.5-11
		C131.8,44.5,105.3,50.7,105.3,50.7z"/>
</g>
<g id="a">
	<path d="M234.6,180.7c0.9,0,3.6,5.2,3.6,5.2s2.7-11.8-11.5-24.4c-10.8-9.5-22.2-5.9-22.2-5.9s-9.7,3.1-12.5,2.9
		c-5.5-0.4-9.1-5.6-9.1-5.6s1.3,2.4,1.6,3.6c0.3,1,0.9,5.2,0.9,5.2l0.5,80.8l-4.2,4.9c0,0,7.7,5.6,9.8,8.5c2.2,3,9,15.1,9,15.1
		s-1.7-17.3-1.5-23.4c0.1-2.7,2.5-11.8,2.5-11.8s10.5-10.3,14.7-10.6c1.2-0.1,2.2,2,2.8,3.1c0.7,1.4,0.8,6.6,0.8,6.6l0.2,62.9
		c0,0,4.8-25.6,6.4-33.9c1.9-10.1,11.8-19.3,11.8-19.3s-2.9-1.4-3.7-2.7c-0.6-0.9-2-6.1-2-6.1l-0.5-50.5
		C231.8,185.5,232.1,180.7,234.6,180.7z M218.8,210.6c0,0,0,1.9-0.5,2.9c-0.6,1.2-1.5,2.1-1.5,2.1s-4,4-5.6,5.1
		c-1.7,1.2-7.8,4-7.8,4s-1.9,0-3.1-1.4c-1.4-1.5-1.4-5.2-1.4-5.2v-46.6c0,0,0.1-3.7,0.4-4.6c0.2-0.9,1.6-2.6,1.6-2.6
		s2.4-2.3,4.9-2.6c3.1-0.4,6.6,0.9,6.6,0.9s2.4,0.4,4.1,2.4c2.3,2.8,2.3,5.9,2.3,5.9V210.6z"/>
</g>
<g id="l1">
	<path d="M216.6,101.7c0,0,20.2,7.9,28.5,15.2c7.4,6.5,15.9,16.2,15.9,16.2s-2.9-1-5.1,1.8c-1.3,1.6-1.6,4.6-1.6,4.6l-0.1,40.9
		l-0.5,96c0,0-1.3,1.5-1.6,4.6c-0.2,2.8,0.6,4.1,1.6,4.9c8.2,5.9,15.5,6.5,22.9,7.2c17.7,1.6,26.4,1.5,35.5-1
		c10-2.7,45.1-24.5,45.1-24.5s-22.6,26.5-45.1,33.7c-12.1,3.9-20.1,5.8-40.9,2.6c-22.4-3.4-39-11-39-11s3.1-0.5,4.1-1.6
		c3.1-3.8,4.3-8.5,4.3-8.5l0.6-137.9c0,0-0.1-5.3-1.2-11c-0.9-4.2-2.7-8.8-3.6-11c-1-2.5-4.2-7-6-9.2
		C228.1,110.9,216.6,101.7,216.6,101.7z"/>
</g>
<g id="l2">
	<path d="M263.2,68.5c0,0,2.7,21.1,9.3,36.2c1.6,3.6,9.2,16.9,9.2,16.9s-1.6-0.1-3.7,2.2s-1.8,5.2-1.8,5.2l0.4,108.6
		c0,0,0.4,5.3,1.2,7.3c0.9,2.1,0.6,9.2,17.2,10.1c5.8,0.3,12.1-0.2,16.8-3.1c1.9-1.2,8.6-5.8,11.7-9.3c5.3-5.8,7.2-11,7.2-11
		s-2.6,11-7.3,19.1c-5.5,9.4-6,8.1-6,8.1s0.4-0.9-2-1.4c-0.6-0.1-3,0.3-3.9,0.5c-6.9,1.6-15.5,4.8-28,4.3
		c-5.7-0.2-12.5-2.8-18.8-4.2c-7.1-1.6-6.2-1.1-6.2-1.1s2.8-2.1,3.5-2.5c1.3-0.8,1.8-2.7,1.8-2.7L263.2,68.5z"/>
</g>
<g id="o">
	<path d="M327.1,163.4c-4.3-1.6-12.1-8-15-9.1c-2.8-1.1-9.5-4.1-9.5-4.1s-10.9,3.7-14.6,7.1c-4,3.8-3.6,6.4-3.6,6.4v53.6
		c0,0-0.8,6.1-1.4,8c-0.5,1.5-3.2,5.7-3.2,5.7s5.4,0.2,11.6,4.4c15.7,10.6,21.3,10.2,21.3,10.2s1.5-0.2,10.1-6.8
		c6.8-5.2,5.5-9.8,5.5-9.8l0.4-59c0,0,0.6-2.5,1.1-3c0.8-0.8,4-2.4,4-2.4S328.7,164,327.1,163.4z M315.7,174.2l0.3,55
		c0,0-0.6,3.5-2.7,7.2c-1.8,3.1-5.1,2.5-6.5,1.8c-4.1-1.8-14.8-7.5-14.8-7.5s-1.9-0.9-1.6-3c0.2-2.1,6.8-4.9,6.8-4.9l0-56
		c0,0-0.4-3.7,1.4-5.7c2.6-2.9,3.1-3.5,4.2-3c4.5,2.1,13.6,8,13.6,8s3.3,2.2,3.3,3.4C319.7,171.9,315.7,174.2,315.7,174.2z"/>
</g>
<g id="u">
	<path d="M323.9,148.2l35.4,19.8c0,0-3.4,0.2-5.4,2.1c-2.6,2.4-2,5.6-2,5.6l-0.1,52.3c0,0,0.1,6,0.9,7.5c0.7,1.3,3.8,3.2,3.8,3.2
		s6.6-2.1,11.3-13.2c2.9-6.8,3-11.3,3-11.3l1-50c0,0-1.4-2.7-2.2-3.5c-1.3-1.5-4-3.3-4-3.3s4.5-1,11.1-10.2
		c3.9-5.5,6.5-31.2,6.5-31.2l0.9,98.3l-12.8,19.9c0,0-6.3,7.5-8.7,8.8c-4.6,2.6-11.3,0-11.3,0s-8.1-2.5-10.3-3.5
		c-3.6-1.6-8,1.4-8,1.4s2.6-2.8,3.2-3.9c1.8-2.9,1.8-6.1,1.8-6.1l0.2-61.1c0,0-1.8-7.2-3.9-10.2
		C331.4,155.7,323.9,148.2,323.9,148.2z"/>
</g>
<g id="t">
	<path d="M327,129.1c0,0-6.4-0.6-12-6.7c-2.1-2.4-4.6-5.5-6.6-8.6c-3.1-4.9-8.8-15.4-11-20.4c-3.1-7-5.6-16.9-5.6-16.9
		s4.5,6.6,10.8,10.6c7.8,4.9,13.9,5.1,13.9,5.1l66.2-0.2c0,0,2.8,0,4.4-1.2c2.5-2,1.8-4,1.8-4s0.2-10-0.6-13.6
		c-1.2-5.4-5.5-7.1-5.5-7.1s10.8-12,14.8-25.6c2.7-9.1,5.7-31.7,5.7-31.7l-1.6,74.6c0,0,0,3.4,0.6,5.1c0.8,2.1,2.9,2.9,2.9,2.9
		l23-0.3c0,0,2.8-0.2,6.1-4c1.3-1.4,2.3-8.5,2.3-8.5s3.1,7.9,1.4,20.6c-0.8,5.9-1.4,13.3-5.9,22.9c-1.5,3.2-5.1,8.3-5.1,8.3
		s1.9-6.7,2.3-8.3c0.5-2.3,0.7-5.6,0.6-7.6c0-1.4-0.4-4.3-0.5-5.7c-0.3-3.8-2.5-3.9-2.5-3.9l-20.1,0.1c0,0-1.9,0-3.3,1.7
		c-1.4,1.8-1.2,4.4-1.2,4.4l0.5,127.3c0,0-0.2,4,2.2,7.1c1.5,1.9,3.8,3.7,3.8,3.7s-12.5,9.9-16.5,12.8c-11.6,8.6-21.7,11-21.7,11
		s8.3-6.8,13.5-15.7c4.8-8.1,5.6-19.5,5.6-19.5l-0.5-124.1c0,0,0.3-3.6-1.3-6.6c-1.3-2.4-3.8-2-3.8-2l-62.6-0.1c0,0-8.6-0.6-7.4,6.3
		c0.5,3.2,1,5.8,4.6,10.7C322.7,127.4,327,129.1,327,129.1z"/>
</g>
</svg>
